<svg width="531" height="120" viewBox="0 0 531 120" fill="none" xmlns="http://www.w3.org/2000/svg">
<path d="M151.552 30.8082H187.032V42.5674H163.796V54.6498H184.486V66.4089H163.796V88.7554H151.552V30.8082Z" fill="#242729"/>
<path d="M220.79 89.4828C216.425 89.4828 212.492 88.486 208.99 86.4925C205.488 84.4989 202.74 81.7376 200.747 78.2085C198.78 74.6794 197.797 70.7193 197.797 66.3281V30.8082H210.041V66.3281C210.041 69.5609 211.064 72.2549 213.112 74.41C215.159 76.5383 217.718 77.6024 220.79 77.6024C223.861 77.6024 226.407 76.5383 228.427 74.41C230.447 72.2549 231.458 69.5609 231.458 66.3281V30.8082H243.702V66.3281C243.702 70.7193 242.705 74.6794 240.711 78.2085C238.745 81.7376 236.011 84.4989 232.508 86.4925C229.033 88.486 225.127 89.4828 220.79 89.4828Z" fill="#242729"/>
<path d="M275.601 30C279.319 30 283.158 30.8486 287.118 32.5458C291.078 34.2161 294.162 36.3173 296.372 38.8497L289.259 48.548C287.131 46.4736 284.747 44.8438 282.107 43.6584C279.494 42.4461 277.002 41.84 274.631 41.84C272.557 41.84 270.873 42.2845 269.58 43.1735C268.314 44.0356 267.681 45.167 267.681 46.5679C267.681 47.6185 268.018 48.5345 268.691 49.3157C269.365 50.097 270.267 50.757 271.398 51.2958C272.557 51.8077 273.877 52.2926 275.359 52.7505C276.84 53.1816 278.389 53.6395 280.006 54.1245C281.649 54.5824 283.292 55.1078 284.936 55.7004C286.579 56.2662 288.141 57.007 289.623 57.923C291.105 58.812 292.411 59.8491 293.543 61.0345C294.701 62.1929 295.617 63.6746 296.291 65.4795C296.964 67.2575 297.301 69.278 297.301 71.541C297.301 73.8578 296.816 76.0938 295.846 78.2489C294.876 80.3772 293.502 82.2899 291.724 83.9871C289.973 85.6843 287.724 87.0447 284.976 88.0684C282.255 89.0652 279.251 89.5636 275.965 89.5636C271.52 89.5636 267.034 88.5264 262.508 86.4521C257.983 84.3508 254.467 81.7241 251.961 78.5722L259.801 69.6417C262.279 72.201 264.798 74.181 267.358 75.5819C269.917 76.9828 272.786 77.6832 275.965 77.6832C278.578 77.6832 280.693 77.1309 282.309 76.0264C283.925 74.9219 284.734 73.4537 284.734 71.6218C284.734 70.5981 284.397 69.6956 283.723 68.9143C283.05 68.1331 282.147 67.5 281.016 67.0151C279.884 66.5302 278.578 66.0857 277.096 65.6816C275.641 65.2505 274.092 64.8195 272.449 64.3885C270.833 63.9305 269.216 63.4321 267.6 62.8933C265.984 62.3545 264.435 61.6541 262.953 60.792C261.498 59.93 260.205 58.9332 259.074 57.8017C257.942 56.6703 257.04 55.229 256.366 53.4779C255.693 51.6999 255.356 49.6929 255.356 47.4569C255.356 42.4731 257.255 38.3244 261.054 35.0108C264.852 31.6703 269.701 30 275.601 30Z" fill="#242729"/>
<path d="M321.159 33.8793C325.685 31.2931 330.722 30 336.272 30C341.821 30 346.859 31.2931 351.385 33.8793C355.911 36.4655 359.453 40.035 362.013 44.5878C364.599 49.1406 365.892 54.2053 365.892 59.7818C365.892 65.3583 364.599 70.423 362.013 74.9758C359.453 79.5286 355.911 83.0981 351.385 85.6843C346.859 88.2705 341.821 89.5636 336.272 89.5636C330.722 89.5636 325.685 88.2705 321.159 85.6843C316.66 83.0981 313.131 79.5286 310.571 74.9758C308.012 70.423 306.733 65.3583 306.733 59.7818C306.733 54.2053 308.012 49.1406 310.571 44.5878C313.131 40.035 316.66 36.4655 321.159 33.8793ZM348.395 47.0528C345.162 43.6315 341.121 41.9208 336.272 41.9208C331.423 41.9208 327.382 43.6315 324.149 47.0528C320.916 50.4472 319.3 54.6902 319.3 59.7818C319.3 64.8734 320.916 69.1299 324.149 72.5512C327.382 75.9725 331.423 77.6832 336.272 77.6832C341.121 77.6832 345.162 75.9725 348.395 72.5512C351.627 69.1299 353.244 64.8734 353.244 59.7818C353.244 54.6902 351.627 50.4472 348.395 47.0528Z" fill="#242729"/>
<path d="M416.986 30.8082V42.5674H400.014V88.7554H387.77V42.5674H370.879V30.8082H416.986Z" fill="#242729"/>
<path d="M454.736 88.7554L451.099 79.0571H428.753L425.035 88.7554H412.023L435.057 30.8082H444.957L468.071 88.7554H454.736ZM432.794 68.5506H447.059L440.027 50.0431L432.794 68.5506Z" fill="#242729"/>
<path d="M485.334 33.8793C489.86 31.2931 494.898 30 500.448 30C505.997 30 511.035 31.2931 515.561 33.8793C520.087 36.4655 523.629 40.035 526.188 44.5878C528.775 49.1406 530.068 54.2053 530.068 59.7818C530.068 65.3583 528.775 70.423 526.188 74.9758C523.629 79.5286 520.087 83.0981 515.561 85.6843C511.035 88.2705 505.997 89.5636 500.448 89.5636C494.898 89.5636 489.86 88.2705 485.334 85.6843C480.835 83.0981 477.306 79.5286 474.747 74.9758C472.188 70.423 470.908 65.3583 470.908 59.7818C470.908 54.2053 472.188 49.1406 474.747 44.5878C477.306 40.035 480.835 36.4655 485.334 33.8793ZM512.57 47.0528C509.338 43.6315 505.297 41.9208 500.448 41.9208C495.598 41.9208 491.557 43.6315 488.325 47.0528C485.092 50.4472 483.476 54.6902 483.476 59.7818C483.476 64.8734 485.092 69.1299 488.325 72.5512C491.557 75.9725 495.598 77.6832 500.448 77.6832C505.297 77.6832 509.338 75.9725 512.57 72.5512C515.803 69.1299 517.419 64.8734 517.419 59.7818C517.419 54.6902 515.803 50.4472 512.57 47.0528Z" fill="#242729"/>
<path d="M124.143 53.8128L105.039 69.894C105.717 70.9485 105.934 72.2902 105.519 73.5778C105.138 74.7561 104.303 75.6574 103.272 76.1484L108.112 101.121C110.219 100.579 112.135 99.2865 113.581 97.0969C116.282 93.0087 118.097 88.2084 118.771 83.2588C119.218 79.9853 120.249 76.7885 121.799 73.8761C124.149 69.4607 125.485 64.4885 125.681 59.5697C125.771 57.3093 125.193 55.3805 124.143 53.8128Z" fill="url(#paint0_linear_1954_316)"/>
<path d="M97.7812 70.2178C98.7751 68.4986 100.861 67.6471 102.821 68.2861C103.058 68.3634 103.284 68.4593 103.497 68.5718L122.817 52.3681C119.458 49.2472 113.761 48.3196 108.56 50.006L75.1944 60.8251C74.3843 61.0878 73.7462 61.6015 73.3203 62.243L97.7812 70.2178Z" fill="url(#paint1_linear_1954_316)"/>
<path d="M93.9837 94.9819C96.9925 99.1443 101.703 101.709 106.027 101.584L101.199 76.7614C100.847 76.7386 100.493 76.672 100.143 76.558C98.2957 75.9558 97.1322 74.2181 97.1716 72.3654L72.6502 64.3748C72.6621 65.0766 72.88 65.7873 73.3338 66.4151L93.9837 94.9819Z" fill="url(#paint2_linear_1954_316)"/>
<path d="M87.4853 115.525L66.3911 102.202C65.6043 103.177 64.4041 103.799 63.0594 103.799C61.8288 103.799 60.7193 103.278 59.9369 102.442L37.8424 114.794C39.0056 116.644 40.8188 118.079 43.3342 118.787C48.0307 120.11 53.1259 120.364 58.0099 119.481C61.24 118.897 64.5785 118.897 67.8087 119.481C72.7058 120.367 77.8153 120.109 82.5223 118.777C84.6854 118.164 86.3286 117.015 87.4853 115.525Z" fill="url(#paint3_linear_1954_316)"/>
<path d="M63.8626 95.1578C65.7992 95.575 67.251 97.3026 67.251 99.3705C67.251 99.6204 67.2298 99.8653 67.1891 100.104L88.5177 113.533C90.438 109.363 89.5565 103.64 86.3509 99.1978L65.7857 70.7011C65.2863 70.0092 64.6023 69.559 63.8626 69.3508L63.8626 95.1578Z" fill="url(#paint4_linear_1954_316)"/>
<path d="M39.2018 99.2876C36.1844 103.444 35.2074 108.729 36.6627 112.815L58.7099 100.539C58.6229 100.197 58.5767 99.8387 58.5767 99.4696C58.5767 97.5211 59.8651 95.8743 61.6341 95.3395L61.6341 69.4811C60.9722 69.7093 60.3656 70.1367 59.9105 70.7636L39.2018 99.2876Z" fill="url(#paint5_linear_1954_316)"/>
<path d="M20.6509 69.8942L1.54686 53.813C0.497454 55.3807 -0.0808906 57.3095 0.0091605 59.5699C0.205121 64.4887 1.54056 69.4608 3.89065 73.8763C5.44074 76.7887 6.47241 79.9855 6.91864 83.259C7.59335 88.2086 9.40777 93.0089 12.1088 97.0971C13.5554 99.2867 15.4711 100.58 17.5783 101.122L22.4182 76.1486C21.3872 75.6576 20.5517 74.7563 20.1714 73.578C19.7559 72.2904 19.9733 70.9487 20.6509 69.8942Z" fill="url(#paint6_linear_1954_316)"/>
<path d="M19.8173 101.483C24.1349 101.608 28.838 99.0457 31.8423 94.8875L52.4613 66.3496C52.9145 65.7225 53.132 65.0124 53.1439 64.3113L28.6591 72.2939C28.6985 74.1446 27.5367 75.8807 25.6917 76.4822C25.3422 76.5961 24.9887 76.6627 24.6381 76.6854L19.8173 101.483Z" fill="url(#paint7_linear_1954_316)"/>
<path d="M22.8987 68.354C24.8616 67.7144 26.9508 68.5667 27.9462 70.2876L52.4437 62.3048C52.0171 61.6626 51.3781 61.1484 50.5667 60.8854L17.1516 50.0553C11.943 48.3672 6.23683 49.2958 2.87311 52.4199L22.2219 68.6399C22.4355 68.5273 22.6614 68.4313 22.8987 68.354Z" fill="url(#paint8_linear_1954_316)"/>
<path d="M85.2891 23.607L76.0019 0.344912C77.8071 -0.175461 79.8078 -0.133224 81.9152 0.651506C86.5011 2.35914 90.7852 5.17435 94.2299 8.78908C96.502 11.1733 99.203 13.149 102.157 14.5879C106.624 16.7634 110.598 19.9842 113.625 23.8339C115.247 25.8957 115.876 28.1294 115.737 30.3147L90.6511 27.232C90.5058 26.093 89.9127 25.0145 88.9171 24.2863C87.8292 23.4905 86.4946 23.2841 85.2891 23.607Z" fill="url(#paint9_linear_1954_316)"/>
<path d="M83.1752 25.438C81.9638 27.111 82.1263 29.3649 83.4486 30.8446L68.331 51.7229C67.8545 51.1182 67.5648 50.3505 67.5662 49.4962L67.6218 14.313C67.6305 8.82884 70.2704 3.67829 74.2664 1.43757L83.6547 24.8814C83.4822 25.0502 83.3216 25.2358 83.1752 25.438Z" fill="url(#paint10_linear_1954_316)"/>
<path d="M115.635 32.6547C114.417 36.8179 110.529 40.5178 105.653 42.1015L72.1816 52.9702C71.446 53.209 70.7047 53.1972 70.0355 52.9917L85.1906 32.0718C86.9352 32.682 88.9427 32.1092 90.0847 30.5328C90.301 30.2342 90.4735 29.9171 90.6036 29.5892L115.635 32.6547Z" fill="url(#paint11_linear_1954_316)"/>
<path d="M50.9552 0.344912L41.6679 23.607C40.4624 23.2841 39.1278 23.4905 38.0399 24.2863C37.0444 25.0145 36.4512 26.093 36.306 27.232L11.2203 30.3147C11.0811 28.1294 11.7104 25.8957 13.3317 23.8339C16.3589 19.9842 20.3327 16.7635 24.7997 14.5879C27.754 13.149 30.455 11.1733 32.7271 8.78908C36.1718 5.17435 40.456 2.35914 45.0419 0.651506C47.1493 -0.133224 49.1499 -0.175461 50.9552 0.344912Z" fill="url(#paint12_linear_1954_316)"/>
<path d="M21.4588 42.0603C16.5892 40.4783 12.707 36.7821 11.4917 32.6232L36.4854 29.5608C36.6152 29.8883 36.7875 30.2051 37.0035 30.5034C38.1438 32.0782 40.1483 32.6504 41.8903 32.0408L57.0228 52.9396C56.3546 53.1449 55.6143 53.1567 54.8799 52.9181L21.4588 42.0603Z" fill="url(#paint13_linear_1954_316)"/>
<path d="M43.5701 30.8744C44.8945 29.3931 45.0572 27.137 43.844 25.4623C43.6974 25.2599 43.5365 25.0741 43.3637 24.9052L52.7661 1.43757C56.7681 3.68056 59.4119 8.83632 59.4206 14.326L59.4763 49.5449C59.4777 50.4001 59.1875 51.1685 58.7104 51.7738L43.5701 30.8744Z" fill="url(#paint14_linear_1954_316)"/>
<mask id="mask0_1954_316" style="mask-type:alpha" maskUnits="userSpaceOnUse" x="0" y="0" width="126" height="120">
<path d="M85.2892 23.607L76.002 0.344912C77.8072 -0.175461 79.8079 -0.133224 81.9153 0.651506C86.5012 2.35914 90.7853 5.17435 94.23 8.78908C96.5021 11.1733 99.2031 13.149 102.157 14.5879C106.624 16.7634 110.598 19.9842 113.625 23.8339C115.247 25.8957 115.876 28.1294 115.737 30.3147L90.6512 27.2319C90.5059 26.093 89.9128 25.0145 88.9173 24.2863C87.8294 23.4905 86.4947 23.2841 85.2892 23.607Z" fill="url(#paint15_linear_1954_316)"/>
<path d="M124.143 53.8126L105.039 69.8938C105.716 70.9483 105.934 72.29 105.518 73.5777C105.138 74.7559 104.302 75.6572 103.271 76.1482L108.111 101.121C110.219 100.579 112.134 99.2863 113.581 97.0967C116.282 93.0085 118.096 88.2082 118.771 83.2586C119.217 79.9851 120.249 76.7883 121.799 73.8759C124.149 69.4605 125.485 64.4883 125.68 59.5695C125.771 57.3091 125.192 55.3803 124.143 53.8126Z" fill="url(#paint16_linear_1954_316)"/>
<path d="M87.4857 115.526L66.3915 102.202C65.6048 103.177 64.4046 103.8 63.0599 103.8C61.8293 103.8 60.7198 103.278 59.9374 102.443L37.8429 114.794C39.0061 116.644 40.8193 118.079 43.3346 118.788C48.0311 120.111 53.1263 120.365 58.0103 119.481C61.2404 118.897 64.579 118.897 67.8091 119.481C72.7063 120.367 77.8158 120.109 82.5228 118.777C84.6858 118.165 86.3291 117.015 87.4857 115.526Z" fill="url(#paint17_linear_1954_316)"/>
<path d="M50.9549 0.344912L41.6677 23.607C40.4621 23.2841 39.1275 23.4905 38.0396 24.2863C37.0441 25.0145 36.4509 26.093 36.3057 27.2319L11.22 30.3147C11.0809 28.1294 11.7102 25.8957 13.3314 23.8339C16.3586 19.9842 20.3324 16.7634 24.7994 14.5879C27.7538 13.149 30.4547 11.1733 32.7268 8.78908C36.1716 5.17435 40.4557 2.35914 45.0416 0.651506C47.149 -0.133223 49.1497 -0.175461 50.9549 0.344912Z" fill="url(#paint18_linear_1954_316)"/>
<path d="M20.6509 69.8938L1.54686 53.8126C0.497454 55.3803 -0.0808906 57.3091 0.0091605 59.5695C0.205121 64.4883 1.54056 69.4605 3.89065 73.8759C5.44074 76.7883 6.47241 79.9851 6.91864 83.2586C7.59335 88.2082 9.40777 93.0085 12.1088 97.0967C13.5554 99.2863 15.4711 100.579 17.5783 101.121L22.4182 76.1482C21.3872 75.6572 20.5517 74.7559 20.1714 73.5777C19.7559 72.29 19.9733 70.9483 20.6509 69.8938Z" fill="url(#paint19_linear_1954_316)"/>
<path d="M83.1753 25.438C81.964 27.111 82.1264 29.3649 83.4488 30.8446L68.3311 51.7229C67.8547 51.1182 67.5649 50.3505 67.5663 49.4962L67.6219 14.313C67.6306 8.82884 70.2705 3.67829 74.2666 1.43757L83.6548 24.8814C83.4823 25.0502 83.3217 25.2358 83.1753 25.438Z" fill="url(#paint20_linear_1954_316)"/>
<path d="M97.7809 70.2176C98.7748 68.4985 100.861 67.6469 102.821 68.2859C103.058 68.3632 103.283 68.4591 103.497 68.5716L122.817 52.3679C119.458 49.247 113.76 48.3194 108.559 50.0058L75.1941 60.8249C74.384 61.0876 73.7459 61.6013 73.32 62.2428L97.7809 70.2176Z" fill="url(#paint21_linear_1954_316)"/>
<path d="M63.8631 95.1581C65.7997 95.5753 67.2514 97.3029 67.2514 99.3708C67.2514 99.6207 67.2302 99.8656 67.1895 100.104L88.5182 113.533C90.4384 109.364 89.557 103.64 86.3514 99.1981L65.7862 70.7014C65.2868 70.0095 64.6027 69.5593 63.8631 69.3511L63.8631 95.1581Z" fill="url(#paint22_linear_1954_316)"/>
<path d="M21.4586 42.0603C16.5889 40.4783 12.7067 36.7821 11.4914 32.6232L36.4851 29.5608C36.6149 29.8883 36.7873 30.2051 37.0032 30.5034C38.1435 32.0782 40.148 32.6504 41.89 32.0408L57.0225 52.9396C56.3543 53.1449 55.6141 53.1567 54.8796 52.9181L21.4586 42.0603Z" fill="url(#paint23_linear_1954_316)"/>
<path d="M19.8173 101.482C24.1349 101.608 28.838 99.0453 31.8423 94.8872L52.4613 66.3492C52.9145 65.7221 53.132 65.012 53.1439 64.3109L28.6591 72.2935C28.6985 74.1443 27.5367 75.8803 25.6917 76.4818C25.3422 76.5958 24.9887 76.6623 24.6381 76.685L19.8173 101.482Z" fill="url(#paint24_linear_1954_316)"/>
<path d="M43.5699 30.8744C44.8942 29.3931 45.0569 27.137 43.8437 25.4623C43.6971 25.2599 43.5362 25.0741 43.3635 24.9052L52.7658 1.43757C56.7678 3.68056 59.4117 8.83632 59.4203 14.326L59.4761 49.5449C59.4774 50.4 59.1873 51.1685 58.7101 51.7738L43.5699 30.8744Z" fill="url(#paint25_linear_1954_316)"/>
<path d="M115.635 32.6547C114.418 36.8179 110.53 40.5178 105.653 42.1015L72.1817 52.9702C71.4461 53.209 70.7048 53.1972 70.0356 52.9917L85.1907 32.0718C86.9353 32.682 88.9428 32.1092 90.0848 30.5328C90.3011 30.2342 90.4737 29.9171 90.6037 29.5892L115.635 32.6547Z" fill="url(#paint26_linear_1954_316)"/>
<path d="M93.9834 94.9818C96.9922 99.1441 101.702 101.709 106.026 101.584L101.198 76.7612C100.847 76.7385 100.493 76.6719 100.143 76.5578C98.2953 75.9557 97.1319 74.2179 97.1713 72.3653L72.6499 64.3746C72.6618 65.0764 72.8797 65.7872 73.3335 66.4149L93.9834 94.9818Z" fill="url(#paint27_linear_1954_316)"/>
<path d="M39.2023 99.2879C36.1849 103.444 35.2079 108.729 36.6632 112.815L58.7103 100.539C58.6234 100.197 58.5771 99.839 58.5771 99.4699C58.5771 97.5214 59.8655 95.8746 61.6346 95.3398L61.6346 69.4814C60.9727 69.7096 60.366 70.1371 59.9109 70.7639L39.2023 99.2879Z" fill="url(#paint28_linear_1954_316)"/>
<path d="M22.8987 68.3536C24.8616 67.714 26.9508 68.5664 27.9462 70.2873L52.4437 62.3044C52.0171 61.6622 51.3781 61.148 50.5667 60.885L17.1516 50.055C11.943 48.3668 6.23683 49.2954 2.87311 52.4195L22.2219 68.6395C22.4355 68.527 22.6614 68.4309 22.8987 68.3536Z" fill="url(#paint29_linear_1954_316)"/>
</mask>
<g mask="url(#mask0_1954_316)">
<g filter="url(#filter0_f_1954_316)">
<ellipse cx="91.9844" cy="19.462" rx="8.27586" ry="5.43103" transform="rotate(43.4524 91.9844 19.462)" fill="#FAC7B5" fill-opacity="0.8"/>
</g>
<g filter="url(#filter1_f_1954_316)">
<path d="M58.9655 10.677C58.9655 10.3939 58.7069 9.82758 58.7069 9.82758C52.8508 9.82758 48.1035 17.8139 48.1035 27.6655C48.1035 37.5171 52.8508 45.5034 58.7069 45.5034C58.9618 45.5034 59.2146 45.5331 59.4651 45.5054C59.4651 43.4483 59.4828 42.1552 59.2241 16.3398V13.5084L58.9655 10.677Z" fill="#FAC7B5" fill-opacity="0.65"/>
</g>
</g>
<defs>
<filter id="filter0_f_1954_316" x="64.9091" y="-7.46259" width="54.1505" height="53.8491" filterUnits="userSpaceOnUse" color-interpolation-filters="sRGB">
<feFlood flood-opacity="0" result="BackgroundImageFix"/>
<feBlend mode="normal" in="SourceGraphic" in2="BackgroundImageFix" result="shape"/>
<feGaussianBlur stdDeviation="10" result="effect1_foregroundBlur_1954_316"/>
</filter>
<filter id="filter1_f_1954_316" x="24.1035" y="-14.1724" width="59.3619" height="83.6896" filterUnits="userSpaceOnUse" color-interpolation-filters="sRGB">
<feFlood flood-opacity="0" result="BackgroundImageFix"/>
<feBlend mode="normal" in="SourceGraphic" in2="BackgroundImageFix" result="shape"/>
<feGaussianBlur stdDeviation="12" result="effect1_foregroundBlur_1954_316"/>
</filter>
<linearGradient id="paint0_linear_1954_316" x1="99.3104" y1="70.6034" x2="112.759" y2="90.2586" gradientUnits="userSpaceOnUse">
<stop offset="0.463542" stop-color="#EA302A"/>
<stop offset="1" stop-color="#C5151B"/>
</linearGradient>
<linearGradient id="paint1_linear_1954_316" x1="99.3104" y1="70.6034" x2="112.759" y2="90.2586" gradientUnits="userSpaceOnUse">
<stop offset="0.463542" stop-color="#EA302A"/>
<stop offset="1" stop-color="#C5151B"/>
</linearGradient>
<linearGradient id="paint2_linear_1954_316" x1="99.3104" y1="70.6034" x2="112.759" y2="90.2586" gradientUnits="userSpaceOnUse">
<stop offset="0.463542" stop-color="#EA302A"/>
<stop offset="1" stop-color="#C5151B"/>
</linearGradient>
<linearGradient id="paint3_linear_1954_316" x1="62.5862" y1="120" x2="62.5862" y2="100.345" gradientUnits="userSpaceOnUse">
<stop stop-color="#9E0B0F"/>
<stop offset="1" stop-color="#DA181F"/>
</linearGradient>
<linearGradient id="paint4_linear_1954_316" x1="62.5862" y1="120" x2="62.5862" y2="100.345" gradientUnits="userSpaceOnUse">
<stop stop-color="#9E0B0F"/>
<stop offset="1" stop-color="#DA181F"/>
</linearGradient>
<linearGradient id="paint5_linear_1954_316" x1="62.5862" y1="120" x2="62.5862" y2="100.345" gradientUnits="userSpaceOnUse">
<stop stop-color="#9E0B0F"/>
<stop offset="1" stop-color="#DA181F"/>
</linearGradient>
<linearGradient id="paint6_linear_1954_316" x1="-1.4394e-06" y1="90" x2="21.9828" y2="75.5173" gradientUnits="userSpaceOnUse">
<stop stop-color="#9A0A0E"/>
<stop offset="0.86899" stop-color="#DA181F"/>
</linearGradient>
<linearGradient id="paint7_linear_1954_316" x1="-1.4394e-06" y1="90" x2="21.9828" y2="75.5173" gradientUnits="userSpaceOnUse">
<stop stop-color="#9A0A0E"/>
<stop offset="0.86899" stop-color="#DA181F"/>
</linearGradient>
<linearGradient id="paint8_linear_1954_316" x1="-1.4394e-06" y1="90" x2="21.9828" y2="75.5173" gradientUnits="userSpaceOnUse">
<stop stop-color="#9A0A0E"/>
<stop offset="0.86899" stop-color="#DA181F"/>
</linearGradient>
<linearGradient id="paint9_linear_1954_316" x1="91.5517" y1="8.27586" x2="67.7586" y2="47.069" gradientUnits="userSpaceOnUse">
<stop stop-color="#F9B198"/>
<stop offset="1" stop-color="#EE1C25"/>
</linearGradient>
<linearGradient id="paint10_linear_1954_316" x1="91.5517" y1="8.27586" x2="67.7586" y2="47.069" gradientUnits="userSpaceOnUse">
<stop stop-color="#F9B198"/>
<stop offset="1" stop-color="#EE1C25"/>
</linearGradient>
<linearGradient id="paint11_linear_1954_316" x1="91.5517" y1="8.27586" x2="67.7586" y2="47.069" gradientUnits="userSpaceOnUse">
<stop stop-color="#F9B198"/>
<stop offset="1" stop-color="#EE1C25"/>
</linearGradient>
<linearGradient id="paint12_linear_1954_316" x1="28.1897" y1="11.3793" x2="56.3793" y2="61.5517" gradientUnits="userSpaceOnUse">
<stop stop-color="#EE2729"/>
<stop offset="1" stop-color="#EE1C25"/>
</linearGradient>
<linearGradient id="paint13_linear_1954_316" x1="28.1897" y1="11.3793" x2="56.3793" y2="61.5517" gradientUnits="userSpaceOnUse">
<stop stop-color="#EE2729"/>
<stop offset="1" stop-color="#EE1C25"/>
</linearGradient>
<linearGradient id="paint14_linear_1954_316" x1="28.1897" y1="11.3793" x2="56.3793" y2="61.5517" gradientUnits="userSpaceOnUse">
<stop stop-color="#EE2729"/>
<stop offset="1" stop-color="#EE1C25"/>
</linearGradient>
<linearGradient id="paint15_linear_1954_316" x1="62.8448" y1="-6.22858e-07" x2="62.8448" y2="120" gradientUnits="userSpaceOnUse">
<stop stop-color="#EF4934"/>
<stop offset="1" stop-color="#D2171D"/>
</linearGradient>
<linearGradient id="paint16_linear_1954_316" x1="62.8448" y1="-6.22858e-07" x2="62.8448" y2="120" gradientUnits="userSpaceOnUse">
<stop stop-color="#EF4934"/>
<stop offset="1" stop-color="#D2171D"/>
</linearGradient>
<linearGradient id="paint17_linear_1954_316" x1="62.8448" y1="-6.22858e-07" x2="62.8448" y2="120" gradientUnits="userSpaceOnUse">
<stop stop-color="#EF4934"/>
<stop offset="1" stop-color="#D2171D"/>
</linearGradient>
<linearGradient id="paint18_linear_1954_316" x1="62.8448" y1="-6.22858e-07" x2="62.8448" y2="120" gradientUnits="userSpaceOnUse">
<stop stop-color="#EF4934"/>
<stop offset="1" stop-color="#D2171D"/>
</linearGradient>
<linearGradient id="paint19_linear_1954_316" x1="62.8448" y1="-6.22858e-07" x2="62.8448" y2="120" gradientUnits="userSpaceOnUse">
<stop stop-color="#EF4934"/>
<stop offset="1" stop-color="#D2171D"/>
</linearGradient>
<linearGradient id="paint20_linear_1954_316" x1="62.8448" y1="-6.22858e-07" x2="62.8448" y2="120" gradientUnits="userSpaceOnUse">
<stop stop-color="#EF4934"/>
<stop offset="1" stop-color="#D2171D"/>
</linearGradient>
<linearGradient id="paint21_linear_1954_316" x1="62.8448" y1="-6.22858e-07" x2="62.8448" y2="120" gradientUnits="userSpaceOnUse">
<stop stop-color="#EF4934"/>
<stop offset="1" stop-color="#D2171D"/>
</linearGradient>
<linearGradient id="paint22_linear_1954_316" x1="62.8448" y1="-6.22858e-07" x2="62.8448" y2="120" gradientUnits="userSpaceOnUse">
<stop stop-color="#EF4934"/>
<stop offset="1" stop-color="#D2171D"/>
</linearGradient>
<linearGradient id="paint23_linear_1954_316" x1="62.8448" y1="-6.22858e-07" x2="62.8448" y2="120" gradientUnits="userSpaceOnUse">
<stop stop-color="#EF4934"/>
<stop offset="1" stop-color="#D2171D"/>
</linearGradient>
<linearGradient id="paint24_linear_1954_316" x1="62.8448" y1="-6.22858e-07" x2="62.8448" y2="120" gradientUnits="userSpaceOnUse">
<stop stop-color="#EF4934"/>
<stop offset="1" stop-color="#D2171D"/>
</linearGradient>
<linearGradient id="paint25_linear_1954_316" x1="62.8448" y1="-6.22858e-07" x2="62.8448" y2="120" gradientUnits="userSpaceOnUse">
<stop stop-color="#EF4934"/>
<stop offset="1" stop-color="#D2171D"/>
</linearGradient>
<linearGradient id="paint26_linear_1954_316" x1="62.8448" y1="-6.22858e-07" x2="62.8448" y2="120" gradientUnits="userSpaceOnUse">
<stop stop-color="#EF4934"/>
<stop offset="1" stop-color="#D2171D"/>
</linearGradient>
<linearGradient id="paint27_linear_1954_316" x1="62.8448" y1="-6.22858e-07" x2="62.8448" y2="120" gradientUnits="userSpaceOnUse">
<stop stop-color="#EF4934"/>
<stop offset="1" stop-color="#D2171D"/>
</linearGradient>
<linearGradient id="paint28_linear_1954_316" x1="62.8448" y1="-6.22858e-07" x2="62.8448" y2="120" gradientUnits="userSpaceOnUse">
<stop stop-color="#EF4934"/>
<stop offset="1" stop-color="#D2171D"/>
</linearGradient>
<linearGradient id="paint29_linear_1954_316" x1="62.8448" y1="-6.22858e-07" x2="62.8448" y2="120" gradientUnits="userSpaceOnUse">
<stop stop-color="#EF4934"/>
<stop offset="1" stop-color="#D2171D"/>
</linearGradient>
</defs>
</svg>
