<svg width="165" height="120" viewBox="0 0 165 120" fill="none" xmlns="http://www.w3.org/2000/svg">
<path d="M64.447 96.5258L82.5001 120L74.0045 89.7345L64.447 96.5258Z" fill="#2A54C9"/>
<path d="M74.0044 89.7345L82.5 120V75.3982L74.0044 89.7345Z" fill="#537BEC"/>
<path d="M67.1018 79.1151L64.447 96.6372L74.0045 89.7345L67.1018 79.1151Z" fill="#2F64F9"/>
<path d="M70.8186 44.0708L75.0664 59.4691L82.5 50.4425L70.8186 44.0708Z" fill="#FFC081"/>
<path d="M67.1018 79.1151L74.0044 89.7345L75.0664 59.4691L67.1018 79.1151Z" fill="#537BEC"/>
<path d="M74.0044 89.7345L82.5 75.3983L75.0663 59.4691L74.0044 89.7345Z" fill="#2A54C9"/>
<path d="M90.9956 89.7345L82.5001 75.3983L89.9337 59.4691L90.9956 89.7345Z" fill="#2A54C9"/>
<path d="M75.0664 59.4691L82.5 75.3983V50.4425L75.0664 59.4691Z" fill="#F9A24A"/>
<path d="M47.9868 86.5487L64.447 96.6372L67.1018 79.1151L47.9868 86.5487Z" fill="#537BEC"/>
<path d="M47.9868 86.5487V100.885L64.447 96.6372L47.9868 86.5487Z" fill="#2A54C9"/>
<path d="M29.4026 79.1151L47.9867 100.885V86.5487L29.4026 79.1151Z" fill="#2F64F9"/>
<path d="M21.4381 91.3274L47.9868 100.885L29.4027 79.1151L21.4381 91.3274Z" fill="#537BEC"/>
<path d="M6.57078 59.469L21.438 91.3274L20.9071 58.938L6.57078 59.469Z" fill="#537BEC"/>
<path d="M35.2434 23.8938L30.9956 37.6991L47.9867 31.8584L35.2434 23.8938Z" fill="#2F64F9"/>
<path d="M35.2434 23.8938L11.3496 14.8673L30.9957 37.6992L35.2434 23.8938Z" fill="#2A54C9"/>
<path d="M30.9956 11.1504L11.3496 14.8672L35.2434 23.8938L30.9956 11.1504Z" fill="#F9A24A"/>
<path d="M30.9956 11.1505L35.2434 23.8938L47.9868 31.8584L30.9956 11.1505Z" fill="#FF8007"/>
<path d="M30.9957 11.1504L52.7655 26.5487L44.27 10.6195L30.9957 11.1504Z" fill="#2A54C9"/>
<path d="M44.2699 10.6194L52.7655 26.5487L67.6328 15.3982L44.2699 10.6194Z" fill="#2F64F9"/>
<path d="M20.9071 58.938L21.438 91.3274L29.4026 79.115L20.9071 58.938Z" fill="#2A54C9"/>
<path d="M30.9956 37.6992L20.9071 58.9381L6.57078 59.4691L30.9956 37.6992Z" fill="#2A54C9"/>
<path d="M82.4998 36.6371V50.4425L47.9867 31.8584L30.9954 11.1504L52.7654 26.5487L82.4998 36.6371Z" fill="#FEB871"/>
<path d="M52.7655 26.5487L67.6328 15.3982L82.5 27.0796V36.6372L52.7655 26.5487Z" fill="#2A54C9"/>
<path d="M11.3496 14.8673L0.199165 0L30.9956 11.1504L11.3496 14.8673Z" fill="#FF8007"/>
<path d="M100.553 96.5258L82.4999 120L90.9955 89.7345L100.553 96.5258Z" fill="#2A54C9"/>
<path d="M97.8982 79.1151L100.553 96.6372L90.9955 89.7345L97.8982 79.1151Z" fill="#2F64F9"/>
<path d="M94.1815 44.0708L89.9337 59.4691L82.5001 50.4425L94.1815 44.0708Z" fill="#FFC081"/>
<path d="M97.8982 79.1151L90.9956 89.7345L89.9336 59.4691L97.8982 79.1151Z" fill="#537BEC"/>
<path d="M89.9337 59.4691L82.5001 75.3983V50.4425L89.9337 59.4691Z" fill="#F9A24A"/>
<path d="M117.013 86.5487L100.553 96.6372L97.8983 79.1151L117.013 86.5487Z" fill="#537BEC"/>
<path d="M117.013 86.5487V100.885L100.553 96.6372L117.013 86.5487Z" fill="#2A54C9"/>
<path d="M135.597 79.1151L117.013 100.885V86.5487L135.597 79.1151Z" fill="#2F64F9"/>
<path d="M143.562 91.3274L117.013 100.885L135.597 79.1151L143.562 91.3274Z" fill="#537BEC"/>
<path d="M158.429 59.469L143.562 91.3274L144.093 58.938L158.429 59.469Z" fill="#537BEC"/>
<path d="M129.757 23.8938L134.005 37.6991L117.013 31.8584L129.757 23.8938Z" fill="#2F64F9"/>
<path d="M129.757 23.8938L153.65 14.8673L134.004 37.6992L129.757 23.8938Z" fill="#2A54C9"/>
<path d="M134.004 11.1504L153.65 14.8672L129.757 23.8938L134.004 11.1504Z" fill="#FEB871"/>
<path d="M90.9956 89.7345L82.5001 120V75.3982L90.9956 89.7345Z" fill="#537BEC"/>
<path d="M134.005 11.1505L129.757 23.8938L117.013 31.8584L134.005 11.1505Z" fill="#FF8007"/>
<path d="M134.004 11.1504L112.234 26.5487L120.73 10.6195L134.004 11.1504Z" fill="#2A54C9"/>
<path d="M120.73 10.6194L112.235 26.5486L97.3674 15.3982L120.73 10.6194Z" fill="#2F64F9"/>
<path d="M144.093 58.938L143.562 91.3274L135.597 79.115L144.093 58.938Z" fill="#2A54C9"/>
<path d="M134.004 37.6992L144.093 58.9381L158.429 59.4691L134.004 37.6992Z" fill="#2A54C9"/>
<path d="M82.5002 36.6371V50.4425L117.013 31.8584L134.005 11.1504L112.235 26.5487L82.5002 36.6371Z" fill="#FEB871"/>
<path d="M112.234 26.5487L97.3672 15.3982L82.5 27.0796V36.6372L112.234 26.5487Z" fill="#2A54C9"/>
<path d="M153.65 14.8673L164.801 0L134.004 11.1504L153.65 14.8673Z" fill="#FF8007"/>
<path d="M82.5001 43.5399L47.9868 31.8585L82.5001 50.4425L117.013 31.8585L82.5001 43.5399Z" fill="#FF8007"/>
<path d="M6.57078 59.469L21.969 27.0797L30.9956 37.6991L6.57078 59.469Z" fill="#2F64F9"/>
<path d="M158.429 59.469L143.031 27.0797L134.004 37.6991L158.429 59.469Z" fill="#2F64F9"/>
<path d="M49.5797 58.938L30.9956 37.6991L20.9071 58.938H49.5797Z" fill="white"/>
<path d="M49.5797 58.9381L47.9868 31.8585L30.9956 37.6992L49.5797 58.9381Z" fill="#F3F3F3"/>
<path d="M47.9867 86.5487L49.5797 58.9381L29.4027 79.1151L47.9867 86.5487Z" fill="white"/>
<path d="M29.4027 79.1151L49.5797 58.9381H20.9071L29.4027 79.1151Z" fill="#F3F3F3"/>
<path d="M67.1019 79.1151L75.0665 59.4691L49.5798 58.9381L67.1019 79.1151Z" fill="white"/>
<path d="M47.9868 86.5487L67.1019 79.1151L49.5798 58.9381L47.9868 86.5487Z" fill="#F3F3F3"/>
<path d="M49.5798 58.9381L70.8187 44.0708L47.9868 31.8585L49.5798 58.9381Z" fill="white"/>
<path d="M49.5798 58.9381L75.0665 59.4691L70.8187 44.0708L49.5798 58.9381Z" fill="#F3F3F3"/>
<path d="M115.42 58.938L134.004 37.6991L144.093 58.938H115.42Z" fill="white"/>
<path d="M115.42 58.9381L117.013 31.8585L134.004 37.6992L115.42 58.9381Z" fill="#F3F3F3"/>
<path d="M117.013 86.5487L115.42 58.9381L135.597 79.1151L117.013 86.5487Z" fill="white"/>
<path d="M135.597 79.1151L115.42 58.9381H144.093L135.597 79.1151Z" fill="#F3F3F3"/>
<path d="M97.8983 79.1151L89.9337 59.4691L115.42 58.9381L97.8983 79.1151Z" fill="white"/>
<path d="M117.013 86.5487L97.8984 79.1151L115.42 58.9381L117.013 86.5487Z" fill="#F3F3F3"/>
<path d="M115.42 58.9381L94.1815 44.0708L117.013 31.8585L115.42 58.9381Z" fill="white"/>
<path d="M115.42 58.9381L89.9337 59.4691L94.1815 44.0708L115.42 58.9381Z" fill="#F3F3F3"/>
<path fill-rule="evenodd" clip-rule="evenodd" d="M102.146 48.8496L107.456 48.8496L115.951 58.6726L122.854 49.9115L129.756 48.8496L129.756 54.6903L120.73 67.4336L115.951 71.1504L111.172 67.4336L102.146 54.6903L102.146 48.8496Z" fill="#282828"/>
<path d="M115.951 71.1505L111.172 67.4336L115.951 58.6726L120.73 67.4336L115.951 71.1505Z" fill="black"/>
<path d="M122.854 49.9115L129.756 54.6903L115.951 58.6726L122.854 49.9115Z" fill="black"/>
<path d="M107.456 48.8495L115.951 58.6726L102.146 54.6903L107.456 48.8495Z" fill="black"/>
<path fill-rule="evenodd" clip-rule="evenodd" d="M35.2435 70.0885L40.5533 70.0885L49.0488 60.2655L55.9515 69.0265L62.8541 70.0885L62.8541 64.2478L53.8276 51.5044L49.0488 47.7876L44.2701 51.5044L35.2435 64.2478L35.2435 70.0885Z" fill="#282828"/>
<path d="M49.0488 47.7877L44.27 51.5045L49.0488 60.2655L53.8275 51.5045L49.0488 47.7877Z" fill="black"/>
<path d="M55.9514 69.0265L62.854 64.2478L49.0487 60.2655L55.9514 69.0265Z" fill="black"/>
<path d="M40.5532 70.0885L49.0488 60.2655L35.2435 64.2478L40.5532 70.0885Z" fill="black"/>
</svg>
